<?xml version="1.0" encoding="UTF-8"?>
<svg version="1.1" xmlns="http://www.w3.org/2000/svg" width="1254" height="1254">
<path d="M0 0 C413.82 0 827.64 0 1254 0 C1254 413.82 1254 827.64 1254 1254 C840.18 1254 426.36 1254 0 1254 C0 840.18 0 426.36 0 0 Z " fill="#FDFDFD" transform="translate(0,0)"/>
<path d="M0 0 C1.87776123 -0.00725098 1.87776123 -0.00725098 3.79345703 -0.01464844 C15.41552995 0.00685401 26.76182454 0.70281428 38.1875 2.875 C39.59008057 3.1383313 39.59008057 3.1383313 41.02099609 3.40698242 C89.02630445 12.61397668 132.0623761 32.70398693 167.78125 66.40625 C170.16129805 68.63274656 172.57563685 70.77073118 175.0625 72.875 C179.01265509 76.30777511 182.32521818 80.12515975 185.6875 84.125 C186.48800781 85.03765625 187.28851562 85.9503125 188.11328125 86.890625 C200.88371225 101.5231159 211.58703946 117.57038417 221.6875 134.125 C222.35523438 135.21425781 223.02296875 136.30351562 223.7109375 137.42578125 C246.7852373 176.00475761 262.11578764 220.57231241 272.88232422 264.06689453 C275.76350543 275.68085282 279.26006443 287.05607475 282.86376953 298.46240234 C283.94468027 301.95630054 284.91468187 305.47112011 285.875 309 C287.34855105 314.27102842 289.29111211 319.19374051 291.4765625 324.20703125 C292.67123667 327.08581062 293.63339658 329.96357495 294.5625 332.9375 C296.70184957 339.49929949 299.58999031 345.63690241 302.59228516 351.8359375 C303.81928216 354.40043236 305.00989414 356.98032519 306.19921875 359.5625 C318.37329128 385.80733028 333.92088953 408.94648878 353.6875 430.125 C354.44546875 430.93710937 355.2034375 431.74921875 355.984375 432.5859375 C375.33961648 452.63695563 399.98464993 467.30857847 426.4375 475.6875 C427.39398437 475.99123535 428.35046875 476.2949707 429.3359375 476.60791016 C436.71804679 478.90984484 444.06637576 480.77887751 451.6875 482.125 C452.98929199 482.37757568 452.98929199 482.37757568 454.31738281 482.63525391 C475.56193881 485.72251697 498.96974806 484.40171392 519.875 479.875 C520.93007751 479.64961548 520.93007751 479.64961548 522.00646973 479.41967773 C535.75325491 476.41026173 544.84504186 470.9138453 555.6875 462.125 C556.24163574 461.67672852 556.79577148 461.22845703 557.36669922 460.76660156 C569.45753907 450.91901956 580.02210363 440.24113855 589.41601562 427.7890625 C590.55681503 426.2960347 591.73700584 424.83330051 592.921875 423.375 C605.01714768 408.18969416 613.9505335 390.26241505 620.6875 372.125 C620.99381348 371.3088623 621.30012695 370.49272461 621.61572266 369.65185547 C628.96891072 349.75025038 633.77365538 328.97377182 633.890625 307.69921875 C633.89768463 306.83778259 633.90474426 305.97634644 633.91201782 305.08880615 C634.20138514 279.44864085 634.20138514 279.44864085 630.6875 254.125 C630.48882324 253.15965332 630.29014648 252.19430664 630.08544922 251.19970703 C625.73131105 230.27049006 618.78493409 210.94577449 608.6875 192.125 C608.34638184 191.47225098 608.00526367 190.81950195 607.65380859 190.14697266 C601.99278978 179.33382027 595.32195218 169.63840394 587.6875 160.125 C587.19878418 159.51382324 586.71006836 158.90264648 586.20654297 158.27294922 C571.67554996 140.28289001 554.2908192 126.21825131 534.6875 114.125 C533.2953125 113.23361328 533.2953125 113.23361328 531.875 112.32421875 C520.05443664 105.02031951 506.75554296 99.78858425 493.6875 95.125 C492.79160156 94.80200928 491.89570312 94.47901855 490.97265625 94.14624023 C483.7145285 91.61834819 476.48228205 89.86999525 468.9375 88.4375 C467.86628906 88.22544922 466.79507813 88.01339844 465.69140625 87.79492188 C456.81241101 86.06390005 448.29349844 84.96919063 439.25390625 84.95703125 C438.37653305 84.95370285 437.49915985 84.95037445 436.59519958 84.94694519 C434.75056477 84.94191162 432.90592097 84.93953575 431.0612793 84.93969727 C428.26140173 84.93750891 425.46191756 84.91930991 422.66210938 84.90039062 C420.85937633 84.89745619 419.05664144 84.89547173 417.25390625 84.89453125 C416.01599083 84.88375298 416.01599083 84.88375298 414.75306702 84.87275696 C409.83014178 84.89182415 405.36964612 85.46333057 400.5900116 86.65440369 C398.22362638 87.23974159 395.85282732 87.55599451 393.4375 87.875 C352.07284075 94.62841375 313.9274658 116.55426535 284.6875 146.125 C284.0275 145.795 283.3675 145.465 282.6875 145.125 C291.95309765 127.29574391 303.82036981 111.59334413 317.6875 97.125 C318.24034668 96.53960449 318.79319336 95.95420898 319.36279297 95.35107422 C328.70579959 85.49434494 338.59293603 76.95705758 349.6875 69.125 C350.34911133 68.65642578 351.01072266 68.18785156 351.69238281 67.70507812 C367.8255414 56.43823632 385.67045187 46.69621589 404.3046875 40.30859375 C407.34267928 39.24564743 410.1997763 38.02218661 413.125 36.6875 C426.50415666 31.03485219 441.38210238 27.07853009 455.81640625 25.453125 C459.33703068 25.05076792 462.75274051 24.35064709 466.2109375 23.58984375 C472.56545712 22.39711846 478.77077179 21.96673148 485.21875 21.95703125 C486.41002502 21.95203865 486.41002502 21.95203865 487.62536621 21.94694519 C489.29939196 21.94191196 490.97342763 21.93953574 492.64746094 21.93969727 C495.15317266 21.93752969 497.65842948 21.91938765 500.1640625 21.90039062 C513.00755038 21.85591849 525.48043479 22.82970448 538.0625 25.58203125 C540.01089512 25.9850475 541.97207382 26.32725862 543.9375 26.63671875 C552.84533002 28.09352012 561.36549945 30.36684424 570 33 C571.08474609 33.32758301 572.16949219 33.65516602 573.28710938 33.99267578 C580.36827366 36.20364944 586.99061593 38.95084646 593.6875 42.125 C595.22725687 42.80512145 596.76883703 43.48113511 598.3125 44.15234375 C618.02748952 52.90240238 636.11000818 64.37493347 652.6875 78.125 C653.57115234 78.85420654 653.57115234 78.85420654 654.47265625 79.59814453 C666.38978177 89.47867706 677.05865212 99.954709 686.6875 112.125 C687.31914063 112.8778125 687.95078125 113.630625 688.6015625 114.40625 C699.19595712 127.13696288 707.81994289 141.38658035 715.55566406 155.99169922 C716.28412679 157.36471632 717.01989779 158.73389369 717.76464844 160.09814453 C723.77951743 171.11975659 727.90874577 182.60956991 731.82861328 194.52075195 C732.37534539 196.17850961 732.93014157 197.83364533 733.49560547 199.48510742 C738.1644768 213.14505252 741.27375905 227.31858512 743.32348633 241.59765625 C743.59876557 243.50891764 743.89372119 245.41735893 744.19799805 247.32421875 C745.75832258 257.74038253 746.12660125 267.98150688 746.125 278.5 C746.12639984 279.38707642 746.12779968 280.27415283 746.12924194 281.18811035 C746.10652018 298.8684105 744.15861013 315.80836858 740.6875 333.125 C740.48463379 334.1444873 740.28176758 335.16397461 740.07275391 336.21435547 C736.72434185 352.50884187 732.3342328 369.50952374 724.96875 384.4765625 C723.70881093 387.08094876 722.60757491 389.72847204 721.50927734 392.40405273 C695.02654245 455.9201308 639.25050834 508.50914398 576.0859375 534.7421875 C574.96445312 535.19851563 573.84296875 535.65484375 572.6875 536.125 C571.79289063 536.49882813 570.89828125 536.87265625 569.9765625 537.2578125 C567.5598355 538.25109512 565.12843498 539.19293719 562.6875 540.125 C561.75035156 540.50140625 560.81320312 540.8778125 559.84765625 541.265625 C532.42449163 551.76952805 501.85137562 556.56659992 472.5625 556.4375 C471.76366394 556.43667419 470.96482788 556.43584839 470.14178467 556.43499756 C455.86074429 556.40118406 441.14285789 556.17143295 427.3359375 552.1484375 C424.19942388 551.26860177 421.27447687 550.72999809 418.0625 550.25390625 C411.36074125 549.179666 405.10222606 547.24779266 398.6875 545.0625 C397.50978027 544.66329346 396.33206055 544.26408691 395.11865234 543.8527832 C350.34873867 528.36906934 310.07660444 499.30517575 280.6875 462.125 C279.76807016 461.01619706 278.84606207 459.90952842 277.921875 458.8046875 C266.20326064 444.68021346 256.43835959 429.20383321 247.73925781 413.06396484 C246.68570479 411.12169045 245.60659916 409.19542183 244.5234375 407.26953125 C234.95450186 390.02590999 227.84493663 371.58372883 221 353.125 C220.58508301 352.01358643 220.17016602 350.90217285 219.74267578 349.75708008 C211.20988529 326.32595103 204.78905492 302.14894141 198.11474609 278.14208984 C192.4672342 257.8599321 186.7104619 237.61779129 178.6875 218.125 C178.3069043 217.19800293 177.92630859 216.27100586 177.53417969 215.31591797 C172.65043678 203.70478053 167.59165488 192.25652655 161.6875 181.125 C161.17002197 180.14587646 161.17002197 180.14587646 160.64208984 179.14697266 C136.20374181 133.32087971 97.9086605 95.10988244 47.6875 79.125 C46.39295898 78.70927734 46.39295898 78.70927734 45.07226562 78.28515625 C42.38824083 77.43674637 39.69718636 76.61802475 37 75.8125 C36.20601807 75.56975342 35.41203613 75.32700684 34.59399414 75.0769043 C20.378127 71.01953364 5.73400528 70.71872933 -8.9375 70.75 C-9.81313599 70.74987915 -10.68877197 70.7497583 -11.59094238 70.74963379 C-25.1975867 70.77632687 -38.1029884 71.63756131 -51.3125 75.125 C-52.46234375 75.37894531 -53.6121875 75.63289063 -54.796875 75.89453125 C-63.87916533 78.28275008 -70.32837028 84.15078378 -77.3125 90.125 C-78.52757903 91.13799974 -79.74372549 92.14972049 -80.9609375 93.16015625 C-91.83679588 102.25539534 -101.56653509 111.93326083 -110.3125 123.125 C-111.03050781 124.02605469 -111.74851562 124.92710937 -112.48828125 125.85546875 C-133.06746953 152.35619966 -146.42729556 183.43643294 -153.3125 216.125 C-153.66634766 217.78208984 -153.66634766 217.78208984 -154.02734375 219.47265625 C-156.22965114 230.64494556 -156.49910534 241.95325512 -156.49780273 253.30541992 C-156.49998663 255.42452184 -156.51821812 257.54309895 -156.53710938 259.66210938 C-156.59670926 274.13816686 -154.35178728 287.97511063 -151.3125 302.125 C-151.0565334 303.44125902 -150.80133709 304.75766805 -150.546875 306.07421875 C-148.04283006 318.39932307 -143.35582684 329.64255992 -138.3125 341.125 C-137.98233887 341.89376465 -137.65217773 342.6625293 -137.31201172 343.45458984 C-128.29416755 364.36831356 -115.33990764 382.93264903 -99.7578125 399.46875 C-97.3125 402.125 -97.3125 402.125 -95.2109375 404.76953125 C-92.30769037 408.37170825 -88.83510615 411.14568136 -85.3125 414.125 C-84.50425781 414.84429688 -83.69601562 415.56359375 -82.86328125 416.3046875 C-38.74307399 454.69744988 16.48032718 468.39019273 73.76898193 465.00189209 C97.79813601 463.23444061 120.16300224 455.66130111 141.6875 445.125 C142.46432129 444.74617676 143.24114258 444.36735352 144.04150391 443.97705078 C163.27059257 434.48883461 179.698901 422.37272003 195.6875 408.125 C195.6875 412.17007565 193.80193414 414.71469569 191.75 418.0625 C191.34394531 418.73055664 190.93789063 419.39861328 190.51953125 420.08691406 C186.62226937 426.39891459 182.29158587 432.30931259 177.6875 438.125 C177.01460937 438.99125 176.34171875 439.8575 175.6484375 440.75 C171.05656092 446.52854131 166.15185824 451.97407888 161.125 457.375 C160.20533447 458.36741699 160.20533447 458.36741699 159.26708984 459.37988281 C136.3831754 483.69594636 105.51265111 501.82457912 74.6875 514.125 C73.1096875 514.76695312 73.1096875 514.76695312 71.5 515.421875 C63.03282598 518.78384116 54.42206773 521.56170158 45.6875 524.125 C44.96320801 524.34188477 44.23891602 524.55876953 43.49267578 524.78222656 C22.39427279 531.03121921 1.11843702 532.74269052 -20.8125 532.6875 C-21.895242 532.68801361 -22.97798401 532.68852722 -24.09353638 532.6890564 C-42.57314062 532.65186453 -59.40892212 530.77958716 -77.3125 526.125 C-79.1317014 525.6983592 -80.95194811 525.27613933 -82.7734375 524.859375 C-99.03306319 521.01792889 -114.37787704 514.52496907 -129.3125 507.125 C-129.95977051 506.80869629 -130.60704102 506.49239258 -131.27392578 506.16650391 C-162.81089521 490.6315413 -191.50834866 467.71441339 -213.3125 440.125 C-213.80556641 439.50834473 -214.29863281 438.89168945 -214.80664062 438.25634766 C-228.10189845 421.57989757 -238.36959101 403.76645797 -247.97363281 384.75268555 C-248.82220611 383.08725987 -249.68925707 381.43101579 -250.58105469 379.78833008 C-254.64533896 372.14257545 -257.20479435 364.03513025 -259.8125 355.8125 C-260.05339355 355.05933502 -260.29428711 354.30617004 -260.54248047 353.53018188 C-264.37813848 341.51268941 -267.89607055 329.51794203 -270.3125 317.125 C-270.47186035 316.37331543 -270.6312207 315.62163086 -270.79541016 314.84716797 C-284.38704414 249.24058869 -264.79290065 176.18810118 -228.96435547 121.05029297 C-213.8050038 98.40308648 -194.88199883 76.81314124 -173.3125 60.125 C-172.30832031 59.32707031 -171.30414063 58.52914062 -170.26953125 57.70703125 C-121.38300932 19.08863619 -61.91671879 0.20886378 0 0 Z " fill="#FDA93A" transform="translate(396.3125,246.875)"/>
<path d="M0 0 C-4.13315458 3.69443984 -8.31715064 7.27562333 -12.6875 10.6875 C-52.19883587 42.13900816 -77.7705661 86.79708574 -88 136 C-88.23460937 137.10085938 -88.46921875 138.20171875 -88.7109375 139.3359375 C-90.92027289 150.51069186 -91.18660573 161.82478532 -91.18530273 173.18041992 C-91.18748663 175.29952184 -91.20571812 177.41809895 -91.22460938 179.53710938 C-91.28420926 194.01316686 -89.03928728 207.85011063 -86 222 C-85.7440334 223.31625902 -85.48883709 224.63266805 -85.234375 225.94921875 C-82.73033006 238.27432307 -78.04332684 249.51755992 -73 261 C-72.66983887 261.76876465 -72.33967773 262.5375293 -71.99951172 263.32958984 C-62.98166755 284.24331356 -50.02740764 302.80764903 -34.4453125 319.34375 C-32 322 -32 322 -29.8984375 324.64453125 C-26.99519037 328.24670825 -23.52260615 331.02068136 -20 334 C-19.19175781 334.71929688 -18.38351562 335.43859375 -17.55078125 336.1796875 C26.56942601 374.57244988 81.79282718 388.26519273 139.08148193 384.87689209 C163.11063601 383.10944061 185.47550224 375.53630111 207 365 C207.77682129 364.62117676 208.55364258 364.24235352 209.35400391 363.85205078 C228.58309257 354.36383461 245.011401 342.24772003 261 328 C261 332.04507565 259.11443414 334.58969569 257.0625 337.9375 C256.65644531 338.60555664 256.25039063 339.27361328 255.83203125 339.96191406 C251.93476937 346.27391459 247.60408587 352.18431259 243 358 C242.32710937 358.86625 241.65421875 359.7325 240.9609375 360.625 C236.36906092 366.40354131 231.46435824 371.84907888 226.4375 377.25 C225.51783447 378.24241699 225.51783447 378.24241699 224.57958984 379.25488281 C206.92976861 398.00928674 177.8386944 422.60158216 151.6796875 426.546875 C148.27826509 427.12204264 145.01420542 428.02588747 141.6875 428.9375 C140.37521039 429.289847 139.06271092 429.64141339 137.75 429.9921875 C135.51823445 430.59197449 133.2882982 431.19874651 131.0625 431.8203125 C95.74583174 440.93738719 52.99490917 440.16499658 18 430 C16.14749841 429.55550239 14.29334993 429.11780375 12.4375 428.6875 C5.43619024 426.94809845 -1.26205765 424.56242481 -8 422 C-9.39412109 421.48179687 -9.39412109 421.48179687 -10.81640625 420.953125 C-33.0619097 412.21947073 -53.56466673 399.1053622 -72 384 C-72.5990918 383.50918945 -73.19818359 383.01837891 -73.81542969 382.51269531 C-87.65272353 371.070729 -99.2201059 358.32385928 -110 344 C-110.42522949 343.44231934 -110.85045898 342.88463867 -111.28857422 342.31005859 C-118.54805544 332.74518272 -124.40321841 322.609 -130 312 C-130.35835937 311.33242676 -130.71671875 310.66485352 -131.0859375 309.97705078 C-157.24638522 261.08602607 -163.81480684 201.27419246 -148 148 C-147.68160156 146.79988281 -147.36320313 145.59976563 -147.03515625 144.36328125 C-142.25862698 126.61914641 -134.20314159 108.33957506 -124 93 C-123.61086426 92.41154297 -123.22172852 91.82308594 -122.82080078 91.21679688 C-109.49195655 71.15187007 -94.01468997 52.89563874 -75 38 C-74.45053711 37.55817383 -73.90107422 37.11634766 -73.33496094 36.66113281 C-56.88918261 23.46594384 -38.57700417 12.80892792 -19 5 C-16.77053512 4.04236063 -14.54134589 3.08407914 -12.3125 2.125 C-3.38062548 -1.69031274 -3.38062548 -1.69031274 0 0 Z " fill="#FD782B" transform="translate(331,327)"/>
<path d="M0 0 C2.7183403 -0.00218419 5.43627224 -0.02039054 8.15454102 -0.03930664 C18.12140653 -0.07234283 27.59683631 0.37454979 37.42211914 2.18530273 C38.90023071 2.44283325 38.90023071 2.44283325 40.40820312 2.70556641 C58.79157645 6.02726463 76.60867658 10.94087337 93.42211914 19.18530273 C94.98464946 19.9029221 96.54860296 20.61744621 98.11352539 21.32983398 C119.44674843 31.12560084 139.21742199 43.12158026 156.42211914 59.18530273 C157.8132445 60.39905328 159.20883239 61.60771526 160.60961914 62.81030273 C167.48235418 68.83081863 173.41090841 75.31647786 179.07983398 82.48803711 C180.02664907 83.68524672 180.97792407 84.87893578 181.93237305 86.07006836 C212.51405182 124.33675626 229.6604766 171.24467095 231.42211914 220.18530273 C231.46336914 221.3209668 231.50461914 222.45663086 231.54711914 223.62670898 C232.51886815 278.95566826 212.2461227 336.26829074 173.88037109 376.6159668 C172.89555001 377.63307976 171.90719664 378.64678487 170.9152832 379.65698242 C169.38445629 381.22385235 167.8833745 382.81580278 166.38305664 384.41186523 C143.57741587 408.33903634 111.27940448 428.21577579 79.42211914 437.18530273 C78.76211914 436.85530273 78.10211914 436.52530273 77.42211914 436.18530273 C78.88045247 435.01863607 80.33878581 433.8519694 81.79711914 432.68530273 C82.71235352 431.95182617 83.62758789 431.21834961 84.57055664 430.46264648 C86.36229428 429.03171081 88.15852984 427.60637063 89.96118164 426.18920898 C96.00590307 421.42059541 101.78576703 416.4303709 107.42211914 411.18530273 C108.42178711 410.2668457 108.42178711 410.2668457 109.44165039 409.32983398 C115.32046017 403.7144332 120.18709272 397.34751014 125.10229492 390.89770508 C126.2665146 389.38719143 127.46489605 387.90314052 128.66821289 386.42358398 C140.75291768 371.23455136 149.68618848 353.31992907 156.42211914 335.18530273 C156.72843262 334.36916504 157.03474609 333.55302734 157.3503418 332.7121582 C164.70352986 312.81055311 169.50827452 292.03407456 169.62524414 270.75952148 C169.63583359 269.46736725 169.63583359 269.46736725 169.64663696 268.14910889 C169.93600428 242.50894359 169.93600428 242.50894359 166.42211914 217.18530273 C166.124104 215.73728271 166.124104 215.73728271 165.82006836 214.26000977 C161.46593019 193.3307928 154.51955323 174.00607722 144.42211914 155.18530273 C144.08100098 154.53255371 143.73988281 153.87980469 143.38842773 153.20727539 C137.72740892 142.394123 131.05657132 132.69870667 123.42211914 123.18530273 C122.93340332 122.57412598 122.4446875 121.96294922 121.94116211 121.33325195 C107.4101691 103.34319274 90.02543834 89.27855404 70.42211914 77.18530273 C69.49399414 76.59104492 68.56586914 75.99678711 67.60961914 75.38452148 C55.78905578 68.08062225 42.4901621 62.84888698 29.42211914 58.18530273 C28.07827148 57.70081665 28.07827148 57.70081665 26.70727539 57.20654297 C19.44914764 54.67865093 12.21690119 52.93029798 4.67211914 51.49780273 C3.6009082 51.28575195 2.52969727 51.07370117 1.42602539 50.85522461 C-7.45296985 49.12420278 -15.97188242 48.02949337 -25.01147461 48.01733398 C-25.88884781 48.01400558 -26.76622101 48.01067719 -27.67018127 48.00724792 C-29.51481608 48.00221435 -31.35945989 47.99983849 -33.20410156 48 C-36.00397913 47.99781165 -38.8034633 47.97961264 -41.60327148 47.96069336 C-43.40600453 47.95775893 -45.20873942 47.95577446 -47.01147461 47.95483398 C-47.83675156 47.94764847 -48.6620285 47.94046295 -49.51231384 47.93305969 C-54.43523908 47.95212689 -58.89573474 48.5236333 -63.67536926 49.71470642 C-66.04175448 50.30004433 -68.41255354 50.61629724 -70.82788086 50.93530273 C-112.19254011 57.68871649 -150.33791506 79.61456809 -179.57788086 109.18530273 C-180.23788086 108.85530273 -180.89788086 108.52530273 -181.57788086 108.18530273 C-172.31228321 90.35604664 -160.44501105 74.65364687 -146.57788086 60.18530273 C-146.02503418 59.59990723 -145.4721875 59.01451172 -144.90258789 58.41137695 C-131.29352129 44.05401955 -116.07750644 32.66448011 -99.29541016 22.25390625 C-97.79477693 21.32025001 -96.31165632 20.35856438 -94.83178711 19.39233398 C-91.7037254 17.71716749 -89.06228819 17.9803376 -85.57788086 18.18530273 C-85.24788086 17.52530273 -84.91788086 16.86530273 -84.57788086 16.18530273 C-77.1570076 11.44492284 -69.68956744 9.31595769 -61.08569336 7.82983398 C-58.19380906 7.2984744 -55.60070414 6.62728974 -52.82788086 5.68530273 C-48.00651831 4.15086574 -43.12695521 3.34837171 -38.14038086 2.56030273 C-37.36533203 2.43719727 -36.5902832 2.3140918 -35.79174805 2.18725586 C-33.3901499 1.82365129 -30.98702128 1.49494298 -28.57788086 1.18530273 C-27.80790771 1.08596436 -27.03793457 0.98662598 -26.24462891 0.88427734 C-17.5218408 -0.0708846 -8.76393662 -0.0007865 0 0 Z " fill="#FD792B" transform="translate(860.577880859375,283.814697265625)"/>
<path d="M0 0 C8.32894253 -0.09349073 16.65765869 -0.16415934 24.98699951 -0.20724869 C28.85643303 -0.22794995 32.72550248 -0.25593887 36.59472656 -0.30175781 C40.34250358 -0.34585086 44.08993488 -0.36926757 47.83795166 -0.37950897 C49.25381907 -0.38678856 50.66967182 -0.40099583 52.08538818 -0.42292023 C76.39036569 -0.78366825 98.65151204 8.23274001 117 24 C117.61617188 24.51949219 118.23234375 25.03898438 118.8671875 25.57421875 C126.90411926 32.9259743 133.35358413 43.79003557 137 54 C137.55494141 55.41152344 137.55494141 55.41152344 138.12109375 56.8515625 C144.65029918 75.783999 142.25877757 98.40210704 133.8125 116.375 C122.08842669 138.01944303 104.29161183 152.47782783 81 160 C76.3918167 161.31419401 71.73316058 162.2595537 67 163 C65.89986572 163.17345947 64.79973145 163.34691895 63.66625977 163.52563477 C57.49734477 164.2834299 51.2987767 164.12285096 45.09375 164.09765625 C43.75996962 164.09578772 42.42618854 164.09436587 41.09240723 164.09336853 C37.60723933 164.0895776 34.1221141 164.07977715 30.63696289 164.06866455 C27.07048113 164.05837623 23.50399237 164.05385511 19.9375 164.04882812 C12.95831597 164.0381513 5.97916004 164.02111676 -1 164 C-0.50429154 160.52177432 -0.00687091 157.0447939 0.52581787 153.57200623 C2.41747995 139.83292516 2.29052383 126.13180568 2.265625 112.28515625 C2.26697565 109.6173022 2.26891756 106.94945363 2.27142334 104.28160095 C2.27503731 98.71513855 2.27033265 93.14872963 2.26074219 87.58227539 C2.24986801 81.1980647 2.25338614 74.81398193 2.264395 68.42977434 C2.27354837 62.89457789 2.27471415 57.35941934 2.26951766 51.82421774 C2.26644099 48.54193212 2.26668317 45.25971783 2.27259064 41.97743416 C2.29244827 27.84633709 2.02618698 14.00040323 0 0 Z " fill="#FD7C30" transform="translate(194,877)"/>
<path d="M0 0 C25.26147561 -2.85077507 25.26147561 -2.85077507 32.53710938 1.52636719 C36.84221713 5.73733993 39.57842289 10.93009564 42.39550781 16.20214844 C45.20061815 21.0935916 48.7590831 25.39848861 52.25 29.8125 C57.14898327 36.18524138 61.93464249 42.61768641 66.56445312 49.18798828 C69.58837339 53.46594607 72.75228326 57.61877824 75.96801758 61.75366211 C80.37957495 67.44662717 84.6334442 73.25365165 88.89526367 79.05908203 C92.09241 83.41340284 95.30599081 87.75241431 98.5625 92.0625 C102.37004473 97.11592235 106.07807112 102.23803019 109.77734375 107.37109375 C110.67737122 108.61868469 110.67737122 108.61868469 111.59558105 109.89147949 C113.06417064 111.92732916 114.53229849 113.96351005 116 116 C116.04678745 104.4192045 116.08210094 92.83843227 116.10362434 81.25756073 C116.11396572 75.87740184 116.12794345 70.49730862 116.15087891 65.1171875 C116.31353483 32.50714488 116.31353483 32.50714488 114 0 C121.59 0 129.18 0 137 0 C136.67547852 3.208396 136.35095703 6.41679199 136.01660156 9.72241211 C134.74258115 23.62837332 134.70908742 37.48776457 134.734375 51.44140625 C134.73302332 54.11026736 134.73108046 56.77912304 134.72857666 59.44798279 C134.72497621 64.99537188 134.72963611 70.54270705 134.73925781 76.09008789 C134.75018344 82.46200642 134.74657124 88.83379729 134.735605 95.20571285 C134.72647687 100.73587228 134.72527221 106.26599372 134.73048234 111.79615825 C134.73356571 115.07375592 134.73330116 118.35128186 134.72740936 121.62887764 C134.58060718 139.09470108 134.58060718 139.09470108 136.57183838 156.40708923 C136.99799894 158.98788175 137.07464469 161.38960393 137 164 C117.07782193 166.6703065 117.07782193 166.6703065 110.89501953 162.62158203 C107.20506327 158.77933179 104.80303738 154.13254452 102.34960938 149.44189453 C100.1106675 145.3909002 97.32791677 141.76466248 94.5625 138.0625 C93.46771902 136.55507707 92.37527636 135.0459532 91.28515625 133.53515625 C90.74262207 132.78637207 90.20008789 132.03758789 89.64111328 131.26611328 C86.92351827 127.513552 84.21205527 123.75656581 81.5 120 C80.41669638 118.49997854 79.33336304 116.99997854 78.25 115.5 C71.75 106.5 71.75 106.5 70.12524414 104.25024414 C69.04121584 102.7493445 67.95706858 101.24853078 66.87280273 99.74780273 C64.17412345 96.01226033 61.47748688 92.27527746 58.78515625 88.53515625 C51.70097916 78.69942502 44.5451654 68.9191152 37.34094238 59.17102051 C34.14170846 54.83736563 30.94679287 50.50053345 27.75170898 46.16381836 C26.77699268 44.84090412 26.77699268 44.84090412 25.78258514 43.49126434 C24.18836277 41.32752969 22.59416852 39.16377433 21 37 C20.95332378 50.17994487 20.91795371 63.35986955 20.89637566 76.53988075 C20.8860108 82.66219664 20.87198772 88.78445531 20.84912109 94.90673828 C20.82712892 100.83308842 20.81537678 106.75938409 20.81024551 112.68577194 C20.80659645 114.92837759 20.79947357 117.17098081 20.78853989 119.41356277 C20.71993544 134.09050464 21.47243179 148.39560221 23 163 C15.41 163 7.82 163 0 163 C0.32452148 160.64713867 0.64904297 158.29427734 0.98339844 155.87011719 C2.51953498 143.02098647 2.29311153 130.10300762 2.26865101 117.18323994 C2.26350564 113.60374484 2.2683053 110.0242588 2.27142334 106.44476318 C2.27503669 100.4437879 2.27033178 94.44286224 2.26074219 88.44189453 C2.24984279 81.54237698 2.25340464 74.64297754 2.264395 67.7434628 C2.27351975 61.77179505 2.27472856 55.8001625 2.26951766 49.82849002 C2.26642883 46.28254435 2.26590256 42.73665391 2.27259064 39.19071198 C2.27953099 35.23679637 2.26986715 31.28300946 2.25878906 27.32910156 C2.26283752 26.18276749 2.26688599 25.03643341 2.27105713 23.85536194 C2.22941297 15.76609557 1.31758217 7.97772933 0 0 Z " fill="#FD7B2F" transform="translate(432,877)"/>
<path d="M0 0 C0.6285791 0.28407715 1.2571582 0.5681543 1.90478516 0.86083984 C15.35696115 7.04863957 26.45313757 15.78764218 35 28 C36.01707031 29.42892578 36.01707031 29.42892578 37.0546875 30.88671875 C46.22458398 44.67616686 50.17789009 59.71128124 50.1875 76.125 C50.19974609 77.20265625 50.21199219 78.2803125 50.22460938 79.390625 C50.26662615 102.63990614 41.42012901 123.77602112 25.45751953 140.55419922 C10.9322771 154.96265578 -9.54360949 162.97831104 -29.875 163.25 C-49.4447302 163.07578875 -65.04982289 157.11315598 -81 146 C-81.67804687 145.53078125 -82.35609375 145.0615625 -83.0546875 144.578125 C-97.68978533 133.23417358 -109.12976911 113.10938094 -112 95 C-112.43408403 89.68282185 -112.56131065 84.3956376 -112.5625 79.0625 C-112.56499756 77.75949951 -112.56749512 76.45649902 -112.57006836 75.11401367 C-112.20919339 54.22987312 -104.36875487 34.29653871 -90 19 C-66.71978779 -3.33999002 -30.55006721 -14.18765833 0 0 Z M-65.37890625 24.99609375 C-73.18662031 34.64755715 -77.2543756 45.33369215 -81 57 C-81.33 57.99 -81.66 58.98 -82 60 C-82.15636851 62.43605679 -82.25932504 64.84276935 -82.30859375 67.28125 C-82.32390137 68.00291351 -82.33920898 68.72457703 -82.35498047 69.46810913 C-82.62552421 85.14389269 -82.80920621 99.52477504 -76 114 C-75.59104492 114.92111572 -75.59104492 114.92111572 -75.17382812 115.86083984 C-69.13697579 129.25555837 -59.96413577 138.8404067 -46.67578125 145.09375 C-36.52084779 148.8178003 -24.54605336 148.48188845 -14.5625 144.5625 C-8.00778286 141.35646997 -2.96074701 137.31508608 2 132 C2.71929688 131.23816406 3.43859375 130.47632813 4.1796875 129.69140625 C17.23968581 114.68472895 20.1770884 95.63652317 20.1875 76.5 C20.19974609 75.31535156 20.21199219 74.13070312 20.22460938 72.91015625 C20.23524532 66.54986075 19.89469035 61.07514593 18 55 C17.71640625 54.00355469 17.4328125 53.00710938 17.140625 51.98046875 C11.8700214 35.4520408 2.52618585 22.12361645 -12.9375 13.75 C-31.08789288 5.27510838 -51.93406492 10.58399765 -65.37890625 24.99609375 Z " fill="#FD7C30" transform="translate(1072,880)"/>
<path d="M0 0 C44.77086882 0 44.77086882 0 61.68359375 16.35546875 C68.73621712 24.40711465 74.19810863 33.61993611 77 44 C77.17515137 44.61520508 77.35030273 45.23041016 77.53076172 45.86425781 C79.26811551 52.60746803 79.29731865 59.19281748 79.25 66.125 C79.26160156 67.83623047 79.26160156 67.83623047 79.2734375 69.58203125 C79.25977222 75.4649327 78.98993468 80.45608604 77 86 C76.80019531 86.71285156 76.60039062 87.42570313 76.39453125 88.16015625 C71.74210221 103.3664176 63.70289254 117.42455273 49.69140625 125.5703125 C33.22248816 134.31867828 19.63434973 133 0 133 C0 89.11 0 45.22 0 0 Z " fill="#FDFDFC" transform="translate(226,892)"/>
<path d="M0 0 C30.36 0 60.72 0 92 0 C92 7.92 92 15.84 92 24 C88.15063446 23.23012689 85.45341643 22.31791872 81.95117188 20.76660156 C66.46332624 14.68153709 47.96492691 15.59129359 32 15 C32 33.48 32 51.96 32 71 C56.08027534 70.43300901 56.08027534 70.43300901 80 68 C80 75.26 80 82.52 80 90 C73 89 73 89 69.57006836 88.45727539 C65.6687657 87.95757356 61.80572694 87.77624271 57.87890625 87.68359375 C57.2175769 87.66494263 56.55624756 87.6462915 55.87487793 87.6270752 C53.43753622 87.55949951 51.00000526 87.49889378 48.5625 87.4375 C43.096875 87.293125 37.63125 87.14875 32 87 C32 107.13 32 127.26 32 148 C61.64349159 148.12116428 61.64349159 148.12116428 90 140 C91.32 139.34 92.64 138.68 94 138 C94 146.58 94 155.16 94 164 C62.98 164 31.96 164 0 164 C1 152 1 152 1.55342102 149.00909424 C2.29971725 143.98047494 2.14726915 138.93050081 2.14526367 133.85449219 C2.14862228 132.63407227 2.1519809 131.41365234 2.15544128 130.15625 C2.16330128 126.81664116 2.1666184 123.47709453 2.16725707 120.13748074 C2.16797026 118.04242884 2.17010987 115.94738336 2.17275429 113.85233307 C2.18200414 106.51776215 2.1860904 99.18320937 2.18530273 91.84863281 C2.18470488 85.05624309 2.1951998 78.26393354 2.2110464 71.47156405 C2.22422524 65.60963537 2.22948221 59.7477325 2.22884732 53.88578916 C2.22859497 50.39877329 2.23129703 46.91182844 2.24202538 43.42482758 C2.25372242 39.51593564 2.24889718 35.60714862 2.24291992 31.69824219 C2.24853943 30.57548889 2.25415894 29.4527356 2.25994873 28.29595947 C2.22286545 18.6320465 1.08725998 9.78533983 0 0 Z " fill="#FD7C30" transform="translate(604,877)"/>
<path d="M0 0 C31.68 0 63.36 0 96 0 C96 8.25 96 16.5 96 25 C91 23 91 23 89.06274414 22.22314453 C70.68419523 15.07850498 51.45784279 15.34136566 32 15 C32 33.48 32 51.96 32 71 C37.89875 70.87625 43.7975 70.7525 49.875 70.625 C51.71562012 70.59100098 53.55624023 70.55700195 55.45263672 70.52197266 C66.31757257 70.30720453 66.31757257 70.30720453 76.99658203 68.41552734 C79 68 79 68 84 68 C84 75.26 84 82.52 84 90 C82.02 89.505 82.02 89.505 80 89 C69.61593346 87.81098475 59.12642486 87.70079851 48.6875 87.4375 C43.180625 87.293125 37.67375 87.14875 32 87 C32 106.8 32 126.6 32 147 C32.66 147 33.32 147 34 147 C34.33 152.61 34.66 158.22 35 164 C23.45 164 11.9 164 0 164 C1 152 1 152 1.55342102 148.03872681 C2.27785755 142.51011447 2.14742922 136.94655847 2.14526367 131.38037109 C2.14862228 130.13372681 2.1519809 128.88708252 2.15544128 127.60266113 C2.16328388 124.20145813 2.16661719 120.80031621 2.16725707 117.39910841 C2.16797094 115.26688982 2.17011167 113.1346775 2.17275429 111.00246048 C2.18199179 103.54281462 2.18609141 96.08318655 2.18530273 88.62353516 C2.18470324 81.70492062 2.19523397 74.78638438 2.2110464 67.86778963 C2.22419118 61.90057622 2.2294837 55.93338816 2.22884732 49.96616042 C2.22859425 46.41446844 2.2313383 42.86284604 2.24202538 39.31116867 C2.25365112 35.33941442 2.24891741 31.36776449 2.24291992 27.39599609 C2.24853943 26.24330231 2.25415894 25.09060852 2.25994873 23.90298462 C2.22836362 15.60834693 1.19924583 8.3947208 0 0 Z " fill="#FD7C30" transform="translate(728,877)"/>
<path d="M0 0 C11.55 0 23.1 0 35 0 C34.67854004 2.34722168 34.35708008 4.69444336 34.02587891 7.11279297 C32.48267305 20.04983624 32.64528304 33.06706534 32.59528303 46.0758729 C32.57942921 49.67130418 32.55271278 53.26665626 32.5272522 56.86203003 C32.48085158 63.64001638 32.44392291 70.41801829 32.41057932 77.19608009 C32.37208063 84.92554147 32.32274531 92.65492254 32.27259517 100.38431573 C32.16985273 116.25615206 32.08040878 132.12803383 32 148 C36.06675785 147.89889729 40.13313249 147.78805675 44.19940186 147.66888428 C45.57750544 147.62978487 46.95568215 147.59316884 48.33392334 147.55926514 C62.65667321 147.20363888 77.68451527 146.41768849 90.3203125 138.953125 C92 138 92 138 94 138 C94 146.58 94 155.16 94 164 C62.98 164 31.96 164 0 164 C1 152 1 152 1.55441284 146.49017334 C2.08237745 140.70686743 2.14068876 134.96144722 2.12939453 129.15722656 C2.13114685 128.02879333 2.13289917 126.90036011 2.13470459 125.73773193 C2.13907513 122.03868024 2.13620128 118.33967711 2.1328125 114.640625 C2.1334871 112.0466918 2.13445844 109.45275867 2.13571167 106.85882568 C2.13718231 101.43224423 2.13515214 96.00568068 2.13037109 90.57910156 C2.12494124 84.34495069 2.12668553 78.11083259 2.1321975 71.87668252 C2.13732129 65.83522107 2.13672901 59.79377537 2.13381577 53.75231171 C2.13315332 51.20249171 2.13395079 48.65267087 2.13629532 46.10285187 C2.14742285 30.59612891 1.92601303 15.40810426 0 0 Z " fill="#FD7C31" transform="translate(853,877)"/>
<path d="M0 0 C11.55 0 23.1 0 35 0 C34 13 34 13 33.44657898 18.07566833 C32.87418193 23.64781609 32.85232065 29.19192929 32.85473633 34.78930664 C32.85137772 35.92413483 32.8480191 37.05896301 32.84455872 38.22817993 C32.83511154 41.95551672 32.83310855 45.68280826 32.83203125 49.41015625 C32.82881366 52.02314776 32.82544922 54.6361391 32.82194519 57.24913025 C32.81556953 62.72037039 32.81406058 68.19159844 32.81469727 73.6628418 C32.81529624 79.9429679 32.80477312 86.22300761 32.7889536 92.5031119 C32.77417709 98.59102026 32.77071263 104.67888795 32.77130699 110.76681328 C32.77013587 113.33452138 32.76576352 115.90223028 32.75797462 118.46992683 C32.71557414 133.89486257 32.96532881 148.82664403 36 164 C24.12 164 12.24 164 0 164 C0.32452148 160.96071289 0.64904297 157.92142578 0.98339844 154.79003906 C2.30971505 140.98614608 2.29036876 127.21476995 2.265625 113.359375 C2.26607363 110.65382747 2.26891962 107.94828311 2.27142334 105.24273682 C2.27502746 99.61199947 2.27035666 93.98131517 2.26074219 88.35058594 C2.24984326 81.89413078 2.25340813 75.43780187 2.264395 68.98134971 C2.27354514 63.37386635 2.27471647 57.7664204 2.26951766 52.15893197 C2.26644264 48.83758729 2.26668029 45.51634788 2.27259064 42.19499969 C2.29239036 27.95244532 1.91738858 14.12241422 0 0 Z " fill="#FD7B2F" transform="translate(363,877)"/>
<path d="M0 0 C1.5 4.5 1.5 4.5 3 9 C2.14535156 9.69867188 1.29070313 10.39734375 0.41015625 11.1171875 C-0.70587953 12.03627579 -1.82175674 12.95555663 -2.9375 13.875 C-3.78344727 14.56529297 -3.78344727 14.56529297 -4.64648438 15.26953125 C-7.77045326 17.75550782 -7.77045326 17.75550782 -10 21 C-10.66 20.67 -11.32 20.34 -12 20 C-8.34667572 13.0690479 -4.47821202 6.43147471 0 0 Z " fill="#FD8841" transform="translate(691,372)"/>
<path d="M0 0 C0.66 0.33 1.32 0.66 2 1 C1.21625 1.7425 0.4325 2.485 -0.375 3.25 C-3.03551951 5.6824415 -3.03551951 5.6824415 -3.8125 8.125 C-5.59191941 10.93460959 -8.07635951 11.4780199 -11.125 12.58203125 C-13 13 -13 13 -15 12 C-10 8 -5 4 0 0 Z " fill="#FC8339" transform="translate(953,708)"/>
<path d="M0 0 C-4.14840618 2.53068794 -8.36241912 4.91890108 -12.625 7.25 C-13.29273438 7.62640625 -13.96046875 8.0028125 -14.6484375 8.390625 C-16.39178193 9.33900437 -18.19370528 10.17782447 -20 11 C-20.99 10.67 -21.98 10.34 -23 10 C-19.19757006 6.78725171 -14.84513078 4.85006144 -10.375 2.75 C-9.59898437 2.37359375 -8.82296875 1.9971875 -8.0234375 1.609375 C-7.2809375 1.25875 -6.5384375 0.908125 -5.7734375 0.546875 C-5.09716309 0.22557617 -4.42088867 -0.09572266 -3.72412109 -0.42675781 C-2 -1 -2 -1 0 0 Z " fill="#FDB758" transform="translate(793,292)"/>
<path d="M0 0 C0 3.44360632 -0.79591532 4.74795392 -2.5 7.6875 C-2.9640625 8.49574219 -3.428125 9.30398438 -3.90625 10.13671875 C-4.2671875 10.75160156 -4.628125 11.36648438 -5 12 C-5.99 11.34 -6.98 10.68 -8 10 C-8.66 9.67 -9.32 9.34 -10 9 C-6.7 6.03 -3.4 3.06 0 0 Z " fill="#FD8B49" transform="translate(592,655)"/>
<path d="M0 0 C-3.12488567 2.52394612 -6.31314387 4.39701907 -10 6 C-10.66 5.67 -11.32 5.34 -12 5 C-12 4.01 -12 3.02 -12 2 C-7.8794254 0.00214565 -4.54805635 -0.17835515 0 0 Z " fill="#FEAC45" transform="translate(489,752)"/>
<path d="M0 0 C3.63 0.33 7.26 0.66 11 1 C6.89441282 3.05279359 5.19793315 3.2216942 0.75 3.125 C-0.32765625 3.10695313 -1.4053125 3.08890625 -2.515625 3.0703125 C-3.33546875 3.04710937 -4.1553125 3.02390625 -5 3 C-5 2.67 -5 2.34 -5 2 C-3.35 1.67 -1.7 1.34 0 1 C0 0.67 0 0.34 0 0 Z " fill="#FD843B" transform="translate(667,947)"/>
<path d="M0 0 C0 0.99 0 1.98 0 3 C-2.23328142 4.99819916 -4.31654249 6.65827124 -7 8 C-7.66 7.34 -8.32 6.68 -9 6 C-6.03 4.02 -3.06 2.04 0 0 Z " fill="#FDB24B" transform="translate(241,294)"/>
<path d="M0 0 C0.33 0.99 0.66 1.98 1 3 C-0.43359375 5.04296875 -0.43359375 5.04296875 -2.4375 7.1875 C-3.09621094 7.90292969 -3.75492188 8.61835937 -4.43359375 9.35546875 C-4.95050781 9.89816406 -5.46742187 10.44085937 -6 11 C-6.66 10.67 -7.32 10.34 -8 10 C-5.36 6.7 -2.72 3.4 0 0 Z " fill="#FEEADC" transform="translate(1108,1006)"/>
<path d="M0 0 C0.66 0.33 1.32 0.66 2 1 C0.02 3.31 -1.96 5.62 -4 8 C-4.99 7.67 -5.98 7.34 -7 7 C-4.69 4.69 -2.38 2.38 0 0 Z " fill="#FDAF47" transform="translate(212,316)"/>
<path d="M0 0 C2.64 0 5.28 0 8 0 C7 2 7 2 3.9375 3.125 C2.4834375 3.558125 2.4834375 3.558125 1 4 C0.67 2.68 0.34 1.36 0 0 Z " fill="#FC853D" transform="translate(546,877)"/>
<path d="M0 0 C2.86453858 3.41016497 4.34703566 6.90694544 6 11 C5.34 11 4.68 11 4 11 C2.67578125 9.35546875 2.67578125 9.35546875 1.3125 7.1875 C0.85488281 6.47980469 0.39726562 5.77210938 -0.07421875 5.04296875 C-1 3 -1 3 0 0 Z " fill="#FD7F38" transform="translate(259,593)"/>
<path d="M0 0 C0.66 0.66 1.32 1.32 2 2 C0.02 4.64 -1.96 7.28 -4 10 C-4.33 9.34 -4.66 8.68 -5 8 C-4.00390625 6.0546875 -4.00390625 6.0546875 -2.5625 3.875 C-2.08941406 3.15054687 -1.61632812 2.42609375 -1.12890625 1.6796875 C-0.75636719 1.12539063 -0.38382812 0.57109375 0 0 Z " fill="#FEE7D8" transform="translate(271,390)"/>
<path d="M0 0 C-5.17578125 3.22265625 -5.17578125 3.22265625 -7 4 C-7.99 3.67 -8.98 3.34 -10 3 C-4.375 -1.3125 -4.375 -1.3125 0 0 Z " fill="#FD944B" transform="translate(780,299)"/>
<path d="M0 0 C0.66 0.33 1.32 0.66 2 1 C0.35 2.65 -1.3 4.3 -3 6 C-3.99 5.67 -4.98 5.34 -6 5 C-4.02 3.35 -2.04 1.7 0 0 Z " fill="#FD8943" transform="translate(953,708)"/>
</svg>
